<svg width="82" height="76" viewBox="0 0 82 76" fill="none" xmlns="http://www.w3.org/2000/svg">
<path d="M0.983144 33.6857H7.5313V0.929004C7.52395 0.805985 7.54283 0.682811 7.5867 0.56751C7.63057 0.452209 7.69846 0.347369 7.78592 0.259823C7.87339 0.172276 7.97849 0.103989 8.09435 0.0594108C8.21022 0.014833 8.33426 -0.00503464 8.45838 0.00110259H45.0062C45.1378 -0.00513967 45.2694 0.0151715 45.3929 0.0608066C45.5164 0.106442 45.6292 0.176451 45.7246 0.266597L52.5857 7.21076C52.6776 7.29912 52.751 7.40459 52.8018 7.52114C52.8525 7.63768 52.8796 7.763 52.8814 7.88993V33.6857H74.201C74.3321 33.6837 74.4624 33.7075 74.5842 33.7557C74.7061 33.8039 74.8171 33.8756 74.9108 33.9666L81.7348 40.7561C81.8238 40.8491 81.893 40.9588 81.9385 41.0788C81.9839 41.1988 82.0045 41.3266 81.9992 41.4547V75.0709C82.0045 75.1949 81.9837 75.3187 81.938 75.4343C81.8922 75.5498 81.8227 75.6547 81.7337 75.742C81.6448 75.8294 81.5384 75.8974 81.4214 75.9416C81.3044 75.9858 81.1794 76.0053 81.0544 75.9988H7.79905C7.66936 76.0049 7.53974 75.9853 7.41783 75.941C7.29591 75.8967 7.18417 75.8287 7.08918 75.7409L0.265242 68.9632C0.176357 68.8725 0.107065 68.7649 0.0616021 68.6467C0.0161391 68.5286 -0.00453475 68.4025 0.00084328 68.2762V34.6597C0.00084328 34.4014 0.104334 34.1536 0.288552 33.9709C0.47277 33.7883 0.72262 33.6857 0.983144 33.6857ZM10.8824 1.99231L15.7271 6.80439H31.1614L26.3168 1.99231H10.8824ZM9.53942 3.33256V34.1327L14.225 38.9366V8.13634L9.53942 3.33256ZM29.4533 8.79559V12.9439H37.6531V8.79559H29.4533ZM44.5837 1.99231H29.1564L34.0012 6.80439H49.3131L44.5837 1.99231ZM50.8733 8.79559H39.6613V13.9956C39.6664 14.1205 39.6454 14.245 39.5995 14.3613C39.5536 14.4777 39.4839 14.5833 39.3948 14.6716C39.3057 14.7599 39.199 14.8289 39.0816 14.8743C38.9642 14.9196 38.8386 14.9404 38.7128 14.9351H28.4168C28.2897 14.9408 28.1628 14.9205 28.044 14.8756C27.9251 14.8307 27.8168 14.7621 27.7257 14.6741C27.6347 14.586 27.5628 14.4804 27.5145 14.3637C27.4663 14.247 27.4427 14.1217 27.4452 13.9956V8.79559H16.2332V40.4889H27.7799V32.2079C27.7767 32.0098 27.834 31.8155 27.9444 31.6504C28.0547 31.4853 28.2129 31.3572 28.3981 31.283C28.5833 31.2088 28.7869 31.192 28.9819 31.2347C29.1769 31.2774 29.3543 31.3777 29.4908 31.5224L30.3442 32.4184L31.2404 31.5033C31.3331 31.4076 31.4441 31.3312 31.5669 31.2785C31.6897 31.2259 31.8219 31.198 31.9558 31.1967H31.9584C32.0929 31.1983 32.2257 31.2265 32.3489 31.2798C32.4722 31.333 32.5835 31.4101 32.6763 31.5066L33.5648 32.4183L34.453 31.5046C34.5459 31.4084 34.6573 31.3316 34.7806 31.2787C34.9039 31.2258 35.0366 31.1979 35.1709 31.1967H35.1736C35.3076 31.1981 35.44 31.2259 35.563 31.2785C35.6861 31.3311 35.7974 31.4074 35.8905 31.503L36.7883 32.4143L37.6458 31.5204C37.7788 31.3765 37.9532 31.2764 38.1454 31.2339C38.3375 31.1913 38.5383 31.2082 38.7204 31.2823C38.904 31.3577 39.0603 31.4865 39.1685 31.6517C39.2767 31.817 39.3318 32.0109 39.3266 32.2079V40.4889H50.8733V8.79559ZM30.1227 42.4802H21.9228V46.7944H30.1227V42.4802ZM37.3184 40.4889V34.6715C37.1625 34.7835 36.9755 34.8449 36.7829 34.8472C36.6503 34.8463 36.5191 34.8195 36.3969 34.7682C36.2747 34.717 36.1639 34.6423 36.0709 34.5485L35.1716 33.6331L34.2825 34.5457C34.1891 34.6414 34.0773 34.7174 33.9537 34.7694C33.8301 34.8213 33.6972 34.8481 33.5629 34.8481C33.4287 34.8481 33.2958 34.8213 33.1722 34.7694C33.0485 34.7174 32.9367 34.6414 32.8433 34.5457L31.9516 33.6331L31.0461 34.5485C30.9535 34.6426 30.843 34.7174 30.721 34.7687C30.599 34.8199 30.4679 34.8466 30.3354 34.8472C30.1392 34.8451 29.9482 34.7838 29.788 34.6715V40.4889H37.3184ZM52.8814 35.6769V40.4889H60.3563L55.5117 35.6769H52.8814ZM58.5711 42.4802V46.7944H66.9383V42.4802H58.5711ZM73.7856 35.6769H58.3514L63.1961 40.4889H78.6304L73.7856 35.6769ZM58.9058 74.0076H66.6036V68.4023C66.431 68.5152 66.2293 68.5763 66.0226 68.5782C65.7476 68.5785 65.4836 68.4712 65.2879 68.2795L64.3772 67.3641L63.4826 68.2767C63.3888 68.3724 63.2767 68.4484 63.1528 68.5003C63.0289 68.5522 62.8957 68.5789 62.7612 68.5789C62.6267 68.5789 62.4935 68.5522 62.3696 68.5003C62.2457 68.4484 62.1335 68.3724 62.0398 68.2767L61.1472 67.3641L60.2413 68.2795C60.0412 68.4736 59.7717 68.581 59.4918 68.5782C59.2836 68.5762 59.0804 68.5152 58.9061 68.4023L58.9058 74.0076ZM22.2575 74.0076H29.788V68.4023C29.6353 68.5145 29.4508 68.576 29.2609 68.5782C29.1287 68.5781 28.998 68.5516 28.8764 68.5003C28.7548 68.4489 28.6449 68.3739 28.5532 68.2795L27.656 67.3641L26.7683 68.2767C26.675 68.3723 26.5633 68.4483 26.4397 68.5002C26.3162 68.5521 26.1834 68.5789 26.0493 68.5789C25.9151 68.5789 25.7823 68.5521 25.6588 68.5002C25.5353 68.4483 25.4236 68.3723 25.3303 68.2767L24.4387 67.3641L23.5332 68.2795C23.4402 68.3754 23.3284 68.4514 23.2046 68.5028C23.0808 68.5542 22.9478 68.5798 22.8136 68.5782C22.6147 68.5761 22.4209 68.5149 22.2575 68.4023V74.0076ZM8.87004 74.0076H20.2494V65.9386C20.2484 65.74 20.3076 65.5457 20.4193 65.3809C20.5311 65.2161 20.6903 65.0885 20.8761 65.0146C21.062 64.9406 21.266 64.9239 21.4616 64.9664C21.6572 65.0089 21.8354 65.1088 21.973 65.2531L22.8293 66.1491L23.7265 65.2108C23.9119 65.0112 24.1696 64.8926 24.443 64.8812H24.4457C24.5816 64.8872 24.7149 64.9196 24.8381 64.9768C24.9613 65.0339 25.0719 65.1146 25.1636 65.2142L26.052 66.1375L26.9403 65.2066C27.0323 65.108 27.1432 65.0285 27.2664 64.9727C27.3896 64.9168 27.5228 64.8857 27.6582 64.8812H27.6609C27.9343 64.8928 28.1921 65.0112 28.3778 65.2106L29.2754 66.1335L30.1331 65.2454C30.2645 65.102 30.4375 65.0023 30.6283 64.9602C30.8191 64.9181 31.0184 64.9355 31.1989 65.0102C31.3817 65.0867 31.5368 65.2166 31.6434 65.3825C31.7501 65.5485 31.8034 65.7427 31.7961 65.9394V74.0076H43.3428V54.9252C43.3428 54.6611 43.4486 54.4079 43.6369 54.2212C43.8252 54.0345 44.0806 53.9296 44.3469 53.9296C44.6132 53.9296 44.8686 54.0345 45.0569 54.2212C45.2452 54.4079 45.3509 54.6611 45.3509 54.9252V74.0076H56.8976V65.9386C56.9032 65.7377 56.9682 65.5429 57.0848 65.3785C57.2013 65.2141 57.3641 65.0875 57.5529 65.0143C57.7416 64.9412 57.9479 64.9248 58.1459 64.9673C58.344 65.0098 58.5251 65.1092 58.6665 65.2531L59.5301 66.1491L60.4309 65.2108C60.6177 65.0112 60.8763 64.8929 61.1505 64.8814H61.1532C61.2891 64.8873 61.4224 64.9198 61.5456 64.9769C61.6688 65.0341 61.7794 65.1148 61.8711 65.2144L62.7595 66.1377L63.6478 65.2068C63.7398 65.1082 63.8507 65.0287 63.9739 64.9728C64.0971 64.917 64.2303 64.8859 64.3657 64.8814H64.3684C64.6418 64.893 64.8995 65.0114 65.0853 65.2108L65.9829 66.1337L66.8405 65.2456C66.9827 65.1016 67.1646 65.0024 67.3633 64.9604C67.5621 64.9183 67.7689 64.9354 67.958 65.0093C68.147 65.0833 68.3099 65.2109 68.4262 65.3762C68.5424 65.5415 68.607 65.7371 68.6117 65.9386V74.0076H79.9911V42.4802H68.9464V47.7263C68.941 48.0006 68.8307 48.2626 68.6378 48.4593C68.4449 48.6559 68.1839 48.7726 67.9075 48.7856H57.6117C57.3343 48.773 57.072 48.6567 56.8775 48.4602C56.683 48.2637 56.5706 48.0016 56.563 47.7263V42.4802H45.3509V48.2878C45.3509 48.5519 45.2452 48.8051 45.0569 48.9918C44.8686 49.1786 44.6132 49.2834 44.3469 49.2834C44.0806 49.2834 43.8252 49.1786 43.6369 48.9918C43.4486 48.8051 43.3428 48.5519 43.3428 48.2878V42.4802H32.1308V47.7263C32.1308 48.2762 31.7544 48.7856 31.1999 48.7856H20.9041C20.3495 48.7856 19.9147 48.2762 19.9147 47.7263V42.4802H8.87004V74.0076ZM8.21439 40.4889L13.2124 40.4835L8.23548 35.6769H3.39122L8.21439 40.4889ZM2.00896 67.8635L6.86192 72.6016V41.8672L2.00896 37.1215V67.8635Z" fill="#4285F4"/>
</svg>
